<svg width="24" height="24" viewBox="0 0 24 24" fill="none" xmlns="http://www.w3.org/2000/svg">
<path d="M23.5 12C23.5 18.3513 18.3513 23.5 12 23.5C5.64873 23.5 0.5 18.3513 0.5 12C0.5 5.64873 5.64873 0.5 12 0.5C18.3513 0.5 23.5 5.64873 23.5 12Z" fill="#00A361" stroke="#008B54"/>
<g clip-path="url(#clip0_1413_1526)">
<path d="M12 10.8571C12.9093 10.8571 13.7814 10.4959 14.4244 9.85294C15.0673 9.20996 15.4286 8.33788 15.4286 7.42857C15.4286 6.51926 15.0673 5.64719 14.4244 5.00421C13.7814 4.36122 12.9093 4 12 4C11.0907 4 10.2186 4.36122 9.57563 5.00421C8.93265 5.64719 8.57143 6.51926 8.57143 7.42857C8.57143 8.33788 8.93265 9.20996 9.57563 9.85294C10.2186 10.4959 11.0907 10.8571 12 10.8571ZM10.7759 12.1429C8.1375 12.1429 6 14.2804 6 16.9187C6 17.358 6.35625 17.7143 6.79554 17.7143H17.2045C17.6437 17.7143 18 17.358 18 16.9187C18 14.2804 15.8625 12.1429 13.2241 12.1429H10.7759Z" fill="white"/>
</g>
<defs>
<clipPath id="clip0_1413_1526">
<rect width="12" height="13.7143" fill="white" transform="translate(6 4)"/>
</clipPath>
</defs>
</svg>
