<svg width="34" height="47" viewBox="0 0 34 47" fill="none" xmlns="http://www.w3.org/2000/svg">
<mask id="path-1-inside-1" fill="white">
<path fill-rule="evenodd" clip-rule="evenodd" d="M28.2465 29.0392C31.3224 25.9646 33.2308 21.6801 33.2308 16.9412C33.2308 7.58482 25.7918 0 16.6154 0C7.43896 0 0 7.58482 0 16.9412C0 21.6801 1.90833 25.9645 4.98418 29.0392L14.9106 45.2208C15.691 46.4931 17.5397 46.4931 18.3202 45.2208L28.2465 29.0392Z"/>
</mask>
<path fill-rule="evenodd" clip-rule="evenodd" d="M28.2465 29.0392C31.3224 25.9646 33.2308 21.6801 33.2308 16.9412C33.2308 7.58482 25.7918 0 16.6154 0C7.43896 0 0 7.58482 0 16.9412C0 21.6801 1.90833 25.9645 4.98418 29.0392L14.9106 45.2208C15.691 46.4931 17.5397 46.4931 18.3202 45.2208L28.2465 29.0392Z" fill="#86B0F5"/>
<path d="M28.2465 29.0392L27.5396 28.332L27.4559 28.4156L27.3941 28.5163L28.2465 29.0392ZM4.98418 29.0392L5.83658 28.5163L5.77476 28.4155L5.69115 28.3319L4.98418 29.0392ZM14.9106 45.2208L14.0582 45.7437L14.0582 45.7437L14.9106 45.2208ZM18.3202 45.2208L17.4678 44.6979L18.3202 45.2208ZM32.2308 16.9412C32.2308 21.407 30.4334 25.4393 27.5396 28.332L28.9535 29.7465C32.2114 26.4899 34.2308 21.9532 34.2308 16.9412H32.2308ZM16.6154 1C25.2213 1 32.2308 8.11871 32.2308 16.9412H34.2308C34.2308 7.05093 26.3623 -1 16.6154 -1V1ZM1 16.9412C1 8.11871 8.00946 1 16.6154 1V-1C6.86846 -1 -1 7.05093 -1 16.9412H1ZM5.69115 28.3319C2.79732 25.4392 1 21.407 1 16.9412H-1C-1 21.9532 1.01934 26.4898 4.27721 29.7464L5.69115 28.3319ZM15.763 44.6979L5.83658 28.5163L4.13178 29.5621L14.0582 45.7437L15.763 44.6979ZM17.4678 44.6979C17.0775 45.3341 16.1532 45.3341 15.763 44.6979L14.0582 45.7437C15.2289 47.6522 18.0019 47.6522 19.1726 45.7437L17.4678 44.6979ZM27.3941 28.5163L17.4678 44.6979L19.1726 45.7437L29.0989 29.5621L27.3941 28.5163Z" fill="#3561A9" mask="url(#path-1-inside-1)"/>
<g clip-path="url(#clip0)">
<path d="M18.196 10.7058C14.7357 10.7058 11.7137 12.8201 10.0318 14.629L6.67297 12.0793C6.20644 11.7249 5.5099 12.1025 5.62913 12.6452L6.55913 16.8823L5.62874 21.1197C5.50951 21.6625 6.20605 22.0396 6.67259 21.6856L10.0314 19.1359C11.7134 20.9445 14.7357 23.0588 18.196 23.0588C23.483 23.0588 27.7691 18.1176 27.7691 16.8823C27.7691 15.647 23.483 10.7058 18.196 10.7058ZM21.5587 17.8088C21.0491 17.8088 20.6357 17.3938 20.6357 16.8823C20.6357 16.3704 21.0491 15.9558 21.5587 15.9558C22.0687 15.9558 22.4818 16.3704 22.4818 16.8823C22.4818 17.3938 22.0684 17.8088 21.5587 17.8088Z" fill="white"/>
</g>
<defs>
<clipPath id="clip0">
<rect width="22.1538" height="19.7647" fill="white" transform="translate(5.61523 7)"/>
</clipPath>
</defs>
</svg>
